<svg width="1920" height="1080" viewBox="0 0 1920 1080" xmlns="http://www.w3.org/2000/svg"><path d="M2592.6135956751914,1116.9999999999998C2568.1711436507944,1258.525253750681,2451.496681649719,1493.3317941071966,2357.8786201928506,1569.3387796444522C2264.260558735982,1645.3457651817077,2136.3203024469644,1560.6996359033883,2030.9052269339809,1573.0419132235334C1925.4901514209973,1585.3841905436784,1851.8339492021848,1674.3135778535354,1725.3881671149495,1643.3924435653219C1598.9423850277142,1612.4713092771083,1328.9324677722245,1502.1600821570769,1272.230534410569,1387.5151074942517C1215.5286010489133,1272.8701328314264,1318.838529425234,1099.7557984065168,1385.176566945016,955.5225955883708C1451.5146044647981,811.2893927702248,1563.6450906464836,620.1372923099634,1670.2587595292616,522.1158905853756C1776.8724284120397,424.0944888607878,1885.8128181066884,334.38229081501225,2024.8585802416837,367.39418524084385C2163.904342376679,400.40607966667545,2409.9074964336487,595.2529546805058,2504.5333323392333,720.1872571403651C2599.159168244818,845.1215596002244,2617.0560476995884,975.4747462493186,2592.6135956751914,1116.9999999999998C2568.1711436507944,1258.525253750681,2451.496681649719,1493.3317941071966,2357.8786201928506,1569.3387796444522" fill="#d3a4e5"/></svg>