<svg width="1920" height="1080" viewBox="0 0 1920 1080" xmlns="http://www.w3.org/2000/svg"><path d="M2463.1355798718882,42.999999999999815C2462.8022465385548,139.00266508354707,2642.439855877161,148.25181732163946,2624.0920192399076,238.47361146845674C2605.7441826026543,328.695405615274,2447.3301448897696,499.48775753005623,2353.048560048367,584.3307648809035C2258.7669752069646,669.1737722317508,2158.743685961622,736.5036040926428,2058.402510191492,747.5316555735404C1958.0613344213623,758.559707054438,1826.2525612012364,713.8352237661794,1751.0015054275882,650.499073766289C1675.75044965394,587.1629237663986,1675.0260548463737,441.3501431659682,1606.8961755496025,367.5147555741981C1538.7662962528314,293.679367982428,1374.3069257462264,294.6871217782713,1342.2222296469613,207.48674821566857C1310.1375335476962,120.2863746530658,1390.3404644779791,-44.716028818707755,1414.387998954012,-155.68748580141855C1438.4355334300446,-266.65894278412935,1422.882100435647,-370.4128776451558,1486.5074365031583,-458.3419936805962C1550.1327725706694,-546.2711097160366,1704.6575030776903,-670.9116290508387,1796.1400153590791,-683.2621820140611C1887.622527640468,-695.6127349772835,1946.8345720656773,-552.7826918922335,2035.4025101914917,-532.4453114599304C2123.970448317306,-512.1079310276273,2229.0993926058964,-593.7217214914264,2327.5476441139654,-561.2378994202425C2425.9958956220344,-528.7540773490585,2603.49402994692,-438.24869560286726,2626.092019239907,-337.5423790328269C2648.6900085328944,-236.83606246278651,2463.4689132052217,-53.00266508354744,2463.1355798718882,42.999999999999815C2462.8022465385548,139.00266508354707,2642.439855877161,148.25181732163946,2624.0920192399076,238.47361146845674" fill="#df7856"/></svg>